<?xml version="1.0" encoding="utf-8"?>
<!-- Generator: Adobe Illustrator 25.1.0, SVG Export Plug-In . SVG Version: 6.00 Build 0)  -->
<svg version="1.1" id="Layer_1" xmlns="http://www.w3.org/2000/svg" xmlns:xlink="http://www.w3.org/1999/xlink" x="0px" y="0px"
	 viewBox="0 0 72 72" style="enable-background:new 0 0 72 72;" xml:space="preserve">
<style type="text/css">
	.st0{fill:none;stroke:#000000;stroke-width:5;stroke-miterlimit:10;}
	.st1{fill:none;stroke:#000000;stroke-width:3;stroke-miterlimit:10;}
</style>
<g id="Layer_2_1_">
	<rect x="2.5" y="2.5" class="st0" width="67" height="67"/>
</g>
<path class="st1" d="M19.69,25.62c0,0,3.29,28.73,3.77,32.94c0.79,0,20.33,0,25.07,0c0.48-4.2,3.77-32.94,3.77-32.94"/>
<path class="st1" d="M14.94,25.19H56.1c0,0,0.11,0,0.3,0c0.21-2.19,0.57-5.84,0.57-5.84s0.04-0.41,0.09-0.96
	c-5.98,0-40.79,0-40.79,0l0.11,8.43l-0.72-7.46c0,0-0.04-0.41-0.09-0.96c5.98,0,40.79,0,40.79,0"/>
<line class="st1" x1="32.49" y1="15.19" x2="39.51" y2="15.19"/>
<line class="st1" x1="36" y1="28.77" x2="36" y2="53.79"/>
<line class="st1" x1="46.26" y1="28.89" x2="43.57" y2="53.79"/>
<line class="st1" x1="26.17" y1="28.89" x2="28.85" y2="53.79"/>
</svg>
