<?xml version="1.0" encoding="UTF-8" standalone="no"?>
<!-- Created with Inkscape (http://www.inkscape.org/) -->

<svg
   xmlns:dc="http://purl.org/dc/elements/1.1/"
   xmlns:cc="http://creativecommons.org/ns#"
   xmlns:rdf="http://www.w3.org/1999/02/22-rdf-syntax-ns#"
   xmlns:svg="http://www.w3.org/2000/svg"
   xmlns="http://www.w3.org/2000/svg"
   xmlns:sodipodi="http://sodipodi.sourceforge.net/DTD/sodipodi-0.dtd"
   xmlns:inkscape="http://www.inkscape.org/namespaces/inkscape"
   width="99.461807mm"
   height="134.5636mm"
   viewBox="0 0 99.461807 134.5636"
   version="1.1"
   id="svg8"
   inkscape:export-filename="C:\Users\dhrub\OneDrive\Pictures\Screenshots\roycolor.png"
   inkscape:export-xdpi="199.95813"
   inkscape:export-ydpi="199.95813"
   inkscape:version="0.92.4 (5da689c313, 2019-01-14)"
   sodipodi:docname="vectoroy_flinch.svg">
  <defs
     id="defs2">
    <inkscape:path-effect
       effect="simplify"
       id="path-effect2966"
       is_visible="true"
       steps="1"
       threshold="9.90099e-05"
       smooth_angles="360"
       helper_size="0"
       simplify_individual_paths="false"
       simplify_just_coalesce="false"
       simplifyindividualpaths="false"
       simplifyJustCoalesce="false" />
  </defs>
  <sodipodi:namedview
     id="base"
     pagecolor="#ffffff"
     bordercolor="#666666"
     borderopacity="1.0"
     inkscape:pageopacity="0.0"
     inkscape:pageshadow="2"
     inkscape:zoom="1.4142136"
     inkscape:cx="9.5244394"
     inkscape:cy="282.71202"
     inkscape:document-units="mm"
     inkscape:current-layer="g1942"
     showgrid="false"
     fit-margin-top="0"
     fit-margin-left="0"
     fit-margin-right="0"
     fit-margin-bottom="0"
     inkscape:window-width="1920"
     inkscape:window-height="1017"
     inkscape:window-x="-8"
     inkscape:window-y="-8"
     inkscape:window-maximized="1" />
  <metadata
     id="metadata5">
    <rdf:RDF>
      <cc:Work
         rdf:about="">
        <dc:format>image/svg+xml</dc:format>
        <dc:type
           rdf:resource="http://purl.org/dc/dcmitype/StillImage" />
        <dc:title />
      </cc:Work>
    </rdf:RDF>
  </metadata>
  <g
     inkscape:label="Layer 1"
     inkscape:groupmode="layer"
     id="layer1"
     transform="translate(-3.410762,-4.3857136)">
    <g
       id="g1942"
       transform="translate(-51.858333,-147.6375)">
      <path
         id="path1696"
         d="m 55.406428,285.92536 c 0.07553,-0.36381 0.206917,-0.98888 0.291965,-1.38907 0.08505,-0.40018 0.317744,-1.79916 0.517102,-3.10885 0.667239,-4.38344 2.15083,-7.85628 4.414081,-10.33264 1.685558,-1.84427 3.184247,-2.4141 6.820434,-2.59328 4.158543,-0.20491 14.621006,-2.01892 17.922511,-3.10745 1.90563,-0.6283 2.68211,-1.40834 4.62226,-4.64346 1.686875,-2.81279 1.745642,-3.00338 0.926058,-3.00338 -1.126718,0 -5.244857,-2.27332 -7.198953,-3.974 -2.054519,-1.78809 -4.412913,-4.38391 -7.486786,-8.2405 -1.121018,-1.40647 -2.078847,-2.51678 -2.128508,-2.46735 -0.167992,0.16721 0.520316,6.86064 0.924735,8.99256 0.394523,2.07975 1.575256,5.822 2.224357,7.04993 0.181343,0.34306 0.665337,1.03383 1.07554,1.53504 0.410205,0.50122 0.701124,0.95601 0.646488,1.01065 -0.374059,0.37406 -4.852974,-2.84308 -5.970532,-4.28855 -1.868656,-2.41694 -2.337086,-3.37597 -2.750167,-5.63048 -0.604618,-3.29989 -1.166827,-7.8699 -1.442095,-11.72231 l -0.236883,-3.31523 -1.226315,-1.8285 c -0.674473,-1.00568 -1.485161,-2.37133 -1.801527,-3.03478 -0.316367,-0.66345 -1.145588,-1.83674 -1.842714,-2.60732 -1.561527,-1.72607 -3.052037,-4.68927 -3.420957,-6.80103 -0.152534,-0.87313 -0.457825,-2.12328 -0.678425,-2.77813 -1.582338,-4.69711 -1.95132,-5.92843 -2.33481,-7.79147 -1.742062,-8.46313 -0.565878,-21.74561 2.760027,-31.16861 1.554617,-4.40456 4.019967,-9.10145 7.811735,-14.88262 3.294657,-5.02324 4.336916,-6.0249 6.744095,-6.48142 0.951738,-0.18049 1.819013,-0.62745 3.053564,-1.57368 2.524665,-1.93505 3.646218,-2.52622 6.782652,-3.57515 4.00644,-1.33989 6.948689,-1.70985 15.96527,-2.0075 6.64805,-0.21945 8.43484,-0.19736 10.99898,0.13602 7.80525,1.01479 14.08824,3.57637 19.63538,8.00535 5.19258,4.14589 7.45715,6.8047 11.28178,13.24584 3.69859,6.22888 5.88573,11.535 7.00752,17.00065 0.80152,3.9052 1.91461,12.83006 2.16768,17.38062 l 0.18001,3.23698 0.90359,0.53313 c 1.42012,0.8379 2.01861,2.47689 2.14748,5.88099 0.16336,4.31515 -0.76878,6.84888 -3.85645,10.48261 -0.6591,0.77566 -1.47864,1.51685 -1.82122,1.6471 -0.58572,0.22269 -0.62288,0.36909 -0.62288,2.4539 0,2.83405 -0.39757,7.83106 -1.07718,13.53872 -0.73904,6.20687 -2.15825,10.36239 -4.13622,12.1111 -0.5427,0.47981 -4.09543,2.34848 -4.22278,2.22112 -0.0387,-0.0387 0.22885,-0.81119 0.59458,-1.71663 1.37908,-3.41428 1.73138,-5.7783 1.86034,-12.4833 0.11387,-5.92036 0.0984,-6.17974 -0.32345,-5.42395 -1.08621,1.94606 -4.46033,5.7325 -7.98891,8.96515 -2.91784,2.67314 -7.57595,6.24839 -8.14088,6.24839 -0.59675,0 -0.47737,0.18054 1.21318,1.83474 2.05922,2.01495 3.02127,4.01385 3.03158,6.29893 0.007,1.63891 0.0144,1.65414 0.93349,2.01666 2.42771,0.95761 7.30324,1.80021 13.19829,2.28096 3.25464,0.26542 4.25539,0.69372 5.73808,2.4558 2.60177,3.09203 5.14072,10.46842 5.14072,14.9353 v 1.13385 H 104.75121 55.269095 Z"
         style="fill:#000000;stroke-width:0.26458332"
         inkscape:connector-curvature="0" />
      <path
         id="path1694"
         d="m 105.02084,281.05788 c 0,-2.59378 -0.0817,-5.29812 -0.18147,-6.00966 l -0.18147,-1.2937 -0.2869,1.16063 -0.28691,1.16062 -2.67974,0.0228 c -2.675228,0.0228 -2.683928,0.0208 -5.1544,-1.20563 -2.981109,-1.4799 -5.580677,-3.60866 -7.745916,-6.34306 -1.092226,-1.37933 -1.734304,-1.98133 -2.004023,-1.87891 -3.060774,1.1622 -14.392488,3.21292 -18.917709,3.42357 -2.726546,0.12692 -3.336003,0.23985 -4.314882,0.79957 -1.409645,0.80602 -3.189757,3.17617 -4.107775,5.46933 -0.517444,1.29257 -2.028385,8.1844 -2.028385,9.25205 0,0.0771 10.775157,0.14429 23.944793,0.14927 l 23.944787,0.009 v -4.71596 z"
         style="fill:#ffffff;stroke-width:0.26458332"
         inkscape:connector-curvature="0" />
      <path
         id="path1692"
         d="m 109.85485,282.0889 c -0.0547,-3.21266 -0.6719,-13.39467 -1.01944,-16.81713 l -0.13598,-1.33901 -1.10262,0.14838 -1.10262,0.14838 -0.433,2.91042 c -0.34848,2.34234 -0.41089,4.38225 -0.31976,10.45104 0.0623,4.14735 0.16203,7.69471 0.22166,7.88302 0.0787,0.24858 0.63509,0.32108 2.03048,0.26459 l 1.92206,-0.0778 z"
         style="fill:#ffffff;stroke-width:0.26458332"
         inkscape:connector-curvature="0" />
      <path
         id="path1690"
         d="m 106.87292,283.94098 c -0.6346,-0.6346 -0.66162,-1.09307 -0.1255,-2.1298 0.47691,-0.92224 0.97778,-0.98667 1.74056,-0.22389 0.64636,0.64637 0.53326,1.99537 -0.21399,2.55213 -0.59867,0.44606 -0.78262,0.42001 -1.40107,-0.19844 z"
         style="fill:#000000;stroke-width:0.26458332"
         inkscape:connector-curvature="0" />
      <path
         id="path1688"
         d="m 107.93125,282.73474 c 0,-0.384 -0.11452,-0.60629 -0.26458,-0.51355 -0.14552,0.0899 -0.26458,0.39462 -0.26458,0.67707 0,0.28246 0.11906,0.51356 0.26458,0.51356 0.14552,0 0.26458,-0.30469 0.26458,-0.67708 z"
         style="fill:#ffffff;stroke-width:0.26458332"
         inkscape:connector-curvature="0" />
      <path
         id="path1686"
         d="m 106.80677,270.16146 c -1.0044,-0.58501 -0.34574,-2.88923 0.82588,-2.88923 1.13091,0 1.49562,1.7134 0.56319,2.64584 -0.59799,0.59798 -0.73811,0.62253 -1.38907,0.24339 z"
         style="fill:#000000;stroke-width:0.26458332"
         inkscape:connector-curvature="0" />
      <path
         id="path1684"
         d="m 107.77688,268.95415 c 0.0918,-0.2391 0.11242,-0.48915 0.0459,-0.55566 -0.21027,-0.21027 -0.68529,0.21197 -0.68529,0.60915 0,0.51899 0.43362,0.48271 0.63938,-0.0535 z"
         style="fill:#ffffff;stroke-width:0.26458332"
         inkscape:connector-curvature="0" />
      <path
         id="path1682"
         d="m 152.52785,284.14609 c -0.22617,-1.99909 -1.04046,-5.87909 -1.45901,-6.95198 -0.46994,-1.20466 -2.09555,-4.4441 -2.46338,-4.90894 -0.38733,-0.48946 -2.33575,-1.78902 -3.63254,-2.42283 -0.64198,-0.31377 -2.18405,-0.54096 -5.02708,-0.74064 -5.7617,-0.40466 -9.00816,-1.16418 -13.73459,-3.21325 -0.98036,-0.42503 -1.46418,-0.52403 -1.5353,-0.31417 -0.58652,1.73071 -4.49274,6.00758 -6.84208,7.49132 -1.8353,1.15911 -5.62811,2.53572 -5.98981,2.17403 -0.12326,-0.12326 -0.53082,-1.50192 -0.90568,-3.06367 -0.37487,-1.56175 -0.73427,-2.78686 -0.79868,-2.72245 -0.0644,0.0644 0.0672,2.2208 0.29243,4.79198 0.22525,2.57119 0.40954,6.13736 0.40954,7.92484 0,1.78748 0.0714,3.32138 0.15872,3.40868 0.0873,0.0873 9.5081,0.16205 20.9351,0.16611 l 20.77637,0.007 -0.18401,-1.62641 z"
         style="fill:#ffffff;stroke-width:0.26458332"
         inkscape:connector-curvature="0" />
      <path
         id="path1680"
         d="m 103.95913,270.91025 c 0.46133,-1.92815 0.90547,-4.19034 0.98699,-5.02708 0.14306,-1.46849 0.12625,-1.52143 -0.48385,-1.52338 -1.40944,-0.004 -7.900247,-2.44757 -9.182489,-3.45618 -0.356976,-0.2808 -0.811586,-0.51054 -1.010243,-0.51054 -0.854168,0 0.0072,-3.02524 1.150675,-4.04128 0.521486,-0.46337 1.398549,-0.3882 1.398549,0.11987 0,0.14042 -0.312122,0.7879 -0.693603,1.43885 -0.866606,1.47875 -0.666261,1.78424 0.32114,0.48969 0.563583,-0.73889 0.766163,-1.34049 0.852273,-2.53092 0.0621,-0.8589 0.0332,-1.56163 -0.0643,-1.56163 -0.905213,0 -4.119704,2.68525 -4.119704,3.44143 0,0.25498 -0.397886,1.22209 -0.884188,2.14911 -2.231847,4.2545 -2.890432,5.41009 -3.239058,5.68342 -0.206068,0.16156 -0.374671,0.41195 -0.374671,0.55642 0,0.5564 4.345477,4.87228 6.039802,5.99867 2.625479,1.74541 4.053679,2.24788 6.437567,2.26485 l 2.02631,0.0144 0.83877,-3.50572 z"
         style="fill:#ffffff;stroke-width:0.26458332"
         inkscape:connector-curvature="0" />
      <path
         id="path1678"
         d="m 115.43405,272.57397 c 2.31853,-1.11792 4.30809,-2.7883 6.08629,-5.10991 l 1.54393,-2.01572 -0.69863,-1.47678 c -0.38425,-0.81223 -1.04223,-2.78643 -1.46219,-4.38711 -1.09357,-4.1682 -1.16477,-4.28774 -3.13198,-5.25781 -0.93528,-0.46121 -1.75422,-0.78485 -1.81987,-0.7192 -0.0656,0.0657 0.0246,1.10362 0.20046,2.30661 0.28951,1.97998 0.35512,2.13913 0.69238,1.67949 0.2114,-0.28811 0.29787,-0.73669 0.19989,-1.03693 -0.37682,-1.15475 -0.27154,-1.85209 0.27963,-1.85209 0.75393,0 1.55587,1.71749 1.31468,2.81562 -0.18449,0.83999 -2.51371,3.26519 -3.14477,3.27437 -0.17291,0.002 -1.40882,0.41924 -2.74647,0.92604 -2.34082,0.8869 -2.43214,0.9521 -2.43349,1.73775 -7.9e-4,0.44895 0.53437,2.5754 1.18922,4.72545 0.65484,2.15004 1.19062,4.11436 1.19062,4.36515 0,1.04687 0.60956,1.05245 2.7403,0.0251 z"
         style="fill:#ffffff;stroke-width:0.26458332"
         inkscape:connector-curvature="0" />
      <path
         id="path1676"
         d="m 107.05396,262.82422 c 0.31786,-0.17297 0.82161,-0.31449 1.11944,-0.31449 0.35696,0 0.5981,-0.22543 0.70754,-0.66146 0.0913,-0.3638 0.33088,-0.66145 0.53238,-0.66145 0.39104,0 5.14089,-1.82221 5.44712,-2.08971 0.10027,-0.0876 0.0118,-1.29035 -0.19657,-2.67279 -0.20838,-1.38245 -0.37972,-3.03345 -0.38075,-3.66888 -0.002,-1.06922 -0.0462,-1.14331 -0.59718,-0.99394 -1.61871,0.43887 -3.93164,0.71659 -5.35781,0.64333 l -1.5875,-0.0816 1.5153,-0.58933 c 0.83342,-0.32413 3.15514,-1.01936 5.15938,-1.54496 8.51226,-2.23225 15.46078,-5.70386 19.49898,-9.74207 2.63418,-2.63418 5.75223,-7.77882 7.79549,-12.86218 0.67771,-1.68606 0.69092,-1.83914 0.67345,-7.8052 -0.0224,-7.63395 -0.82236,-16.63802 -1.97848,-22.26768 l -0.28044,-1.36559 -2.03663,-0.44414 c -6.54458,-1.4272 -12.4893,-3.45663 -19.43547,-6.63495 -3.06153,-1.40084 -3.23261,-1.44651 -4.76792,-1.27281 -1.16753,0.13209 -1.54244,0.0993 -1.40505,-0.12306 0.10308,-0.16678 0.40877,-0.30323 0.67932,-0.30323 1.53932,0 1.18743,-0.40002 -1.91335,-2.17505 -5.48628,-3.14061 -12.064398,-7.71257 -19.060341,-13.24739 -1.279631,-1.01237 -2.375053,-1.79223 -2.434275,-1.733 -0.05922,0.0592 -0.946465,2.54443 -1.971654,5.5227 -1.025189,2.97827 -2.446785,6.90331 -3.159104,8.72232 -0.712316,1.81901 -1.260507,3.34505 -1.2182,3.39119 0.04231,0.0461 1.011516,-0.0466 2.153793,-0.20615 2.784028,-0.38878 8.850736,-0.62375 8.162291,-0.31612 -0.291042,0.13005 -1.719792,0.32363 -3.175001,0.43018 -3.35398,0.24558 -7.271192,0.82132 -7.549888,1.10965 -0.117731,0.1218 -0.885584,1.76927 -1.706343,3.66104 -1.390508,3.205 -2.617501,5.6465 -4.122021,8.20209 l -0.62306,1.05833 c 0.183535,0.91373 -0.0805,-2.31612 0.192918,1.99619 l -0.166199,7.86544 c -0.09141,4.326 -0.239535,8.12063 -0.329169,8.43251 -0.09151,1.04407 -0.04515,0.48964 -0.11432,1.4048 -0.179101,0.2031 -1.064218,8.39946 -1.062178,9.58767 0.0046,2.70055 4.135501,8.81787 8.514252,12.6086 3.272902,2.83338 9.41146,5.48676 14.771216,6.38482 2.43496,0.408 4.278913,0.88267 4.894793,1.26002 0.82304,0.50429 0.0417,0.85422 -1.91823,0.85902 l -1.653653,0.004 -0.0515,3.43959 c -0.0283,1.89177 -0.0581,3.81919 -0.0661,4.28316 -0.0137,0.78749 0.0909,0.88617 1.572803,1.48413 1.88568,0.76086 5.39267,1.80111 5.95312,1.76583 0.21828,-0.0137 0.65694,-0.1665 0.97479,-0.33947 z"
         style="fill:#ffffff;stroke-width:0.26458332"
         inkscape:connector-curvature="0"
         sodipodi:nodetypes="cscscccccccccccscccscscccsccccscccccscccscccccccccc" />
      <path
         id="path1672"
         d="m 76.710427,227.07118 c 0,-0.4843 0.44162,-0.9851 0.668568,-0.75816 0.181732,0.18174 -0.190969,1.27171 -0.434843,1.27171 -0.128548,0 -0.233725,-0.23109 -0.233725,-0.51355 z"
         style="fill:#000000;stroke-width:0.26458332"
         inkscape:connector-curvature="0" />
      <path
         id="path1670"
         d="m 78.566562,227.25401 c 0.0059,-0.48555 0.468884,-1.13662 0.667179,-0.93832 0.231338,0.23134 -0.115759,1.26904 -0.424477,1.26904 -0.135714,0 -0.24493,-0.14882 -0.242702,-0.33072 z"
         style="fill:#000000;stroke-width:0.26458332"
         inkscape:connector-curvature="0" />
      <path
         id="path1668"
         d="m 75.287434,227.10769 c -0.204966,-0.33164 0.07064,-1.11046 0.392968,-1.11046 0.298321,0 0.298706,0.55014 7.14e-4,1.02044 -0.142688,0.22519 -0.289408,0.25874 -0.393682,0.09 z"
         style="fill:#000000;stroke-width:0.26458332"
         inkscape:connector-curvature="0" />
      <path
         id="path1666"
         d="m 134.9228,223.28526 c 0.005,-0.75718 0.39821,-1.41159 0.62623,-1.04264 0.17032,0.27557 -0.23844,1.63795 -0.49144,1.63795 -0.0764,0 -0.13701,-0.26789 -0.13479,-0.59531 z"
         style="fill:#000000;stroke-width:0.26458332"
         inkscape:connector-curvature="0" />
      <path
         id="path1664"
         d="m 138.5765,223.35136 c -0.19922,-0.57623 0.32137,-1.94755 0.62433,-1.64459 0.15373,0.15373 0.10832,0.58762 -0.11977,1.14453 -0.24768,0.60475 -0.41204,0.76765 -0.50456,0.50006 z"
         style="fill:#000000;stroke-width:0.26458332"
         inkscape:connector-curvature="0" />
      <path
         id="path1662"
         d="m 101.30613,222.94178 c -0.27925,-0.33647 -0.26218,-0.57262 0.0956,-1.32292 0.51719,-1.08456 1.38913,-1.28753 1.13213,-0.26354 -0.22742,0.90613 -0.65408,1.99604 -0.78137,1.99604 -0.0585,0 -0.25942,-0.18431 -0.44637,-0.40958 z"
         style="fill:#000000;stroke-width:0.26458332"
         inkscape:connector-curvature="0" />
      <path
         id="path1660"
         d="m 136.50625,223.25855 c 0,-0.051 0.13071,-0.46776 0.29047,-0.92604 0.26926,-0.7724 0.76787,-1.15283 0.76787,-0.58587 0,0.52578 -0.52928,1.60472 -0.7872,1.60472 -0.14913,0 -0.27114,-0.0418 -0.27114,-0.0928 z"
         style="fill:#000000;stroke-width:0.26458332"
         inkscape:connector-curvature="0" />
      <path
         id="path1650"
         d="m 122.21875,255.20769 c 0.62711,-0.38309 0.63054,-0.39763 0.0662,-0.27997 -0.49844,0.1039 -0.59597,0.01 -0.59936,-0.57873 -0.002,-0.38656 -0.10399,-0.86046 -0.22613,-1.0531 -0.13497,-0.21288 -0.21122,0.17565 -0.19439,0.99055 0.0152,0.73746 0.0872,1.33734 0.15998,1.33308 0.0728,-0.004 0.42995,-0.18958 0.79375,-0.41183 z"
         style="fill:#000000;stroke-width:0.26458332"
         inkscape:connector-curvature="0" />
      <path
         id="path1648"
         d="m 90.733344,253.17603 c 0,-0.0403 -0.863203,-0.90348 -1.918229,-1.91822 l -1.918229,-1.84499 1.844987,1.91823 c 1.713625,1.78165 1.991471,2.03906 1.991471,1.84498 z"
         style="fill:#000000;stroke-width:0.26458332"
         inkscape:connector-curvature="0" />
      <path
         id="path1646"
         d="m 85.706261,251.3168 c 0,-0.0442 -0.446484,-0.49069 -0.992188,-0.99218 l -0.992187,-0.9118 0.911799,0.99219 c 0.84868,0.9235 1.072576,1.11384 1.072576,0.91179 z"
         style="fill:#000000;stroke-width:0.26458332"
         inkscape:connector-curvature="0" />
      <path
         id="path1644"
         d="m 72.760204,247.12419 c -0.154716,-1.65167 -0.295796,-3.65788 -0.31351,-4.45825 -0.02634,-1.19032 -0.06686,-1.31072 -0.222562,-0.66145 -0.190316,0.79359 -0.190388,0.79361 -0.359167,0.13229 -0.09285,-0.3638 -0.213386,-1.01865 -0.267865,-1.45521 -0.08106,-0.64956 -0.106991,-0.60149 -0.142748,0.26458 -0.07988,1.93488 -0.555108,0.41373 -0.578614,-1.85208 -0.01833,-1.76714 -0.07108,-2.01454 -0.319407,-1.49818 -0.221378,0.46031 -0.21423,1.61063 0.02795,4.49792 0.439074,5.23467 0.619423,6.45803 0.82686,5.60883 0.08758,-0.35851 0.0085,-1.37054 -0.175645,-2.24896 -0.184181,-0.87841 -0.331667,-1.89477 -0.327747,-2.25857 0.0081,-0.7478 1.158263,3.29522 1.603353,5.63585 0.449872,2.36578 0.559943,1.6116 0.249102,-1.70677 z"
         style="fill:#000000;stroke-width:0.26458332"
         inkscape:connector-curvature="0" />
      <path
         id="path1642"
         d="m 131.74375,248.35449 c 0.34178,-0.36381 0.56188,-0.66146 0.48912,-0.66146 -0.0728,0 -0.41192,0.29765 -0.7537,0.66146 -0.34178,0.3638 -0.56188,0.66145 -0.48912,0.66145 0.0728,0 0.41193,-0.29765 0.7537,-0.66145 z"
         style="fill:#000000;stroke-width:0.26458332"
         inkscape:connector-curvature="0" />
      <path
         id="path1640"
         d="m 143.62129,242.99667 c 0.045,-3.00544 -0.40395,-2.24483 -0.57364,0.97189 -0.17444,3.3065 0.092,5.11861 0.37261,2.53384 0.0948,-0.87312 0.18523,-2.4507 0.20103,-3.50573 z"
         style="fill:#000000;stroke-width:0.26458332"
         inkscape:connector-curvature="0" />
      <path
         id="path1638"
         d="m 81.166492,245.90709 c -1.595334,-2.07409 -2.523642,-3.06898 -1.419539,-1.52135 1.061045,1.48727 2.532671,3.30729 2.674194,3.30729 0.06547,0 -0.499121,-0.80368 -1.254655,-1.78594 z"
         style="fill:#000000;stroke-width:0.26458332"
         inkscape:connector-curvature="0" />
      <path
         id="path1636"
         d="m 128.98227,246.03938 0.77711,-0.85989 -0.8599,0.7771 c -0.80154,0.72437 -0.98151,0.94269 -0.7771,0.94269 0.0455,0 0.43249,-0.38696 0.85989,-0.8599 z"
         style="fill:#000000;stroke-width:0.26458332"
         inkscape:connector-curvature="0" />
      <path
         id="path1634"
         d="m 135.06769,244.98105 0.77711,-0.8599 -0.8599,0.77711 c -0.80155,0.72437 -0.98151,0.94268 -0.77711,0.94268 0.0455,0 0.43249,-0.38695 0.8599,-0.85989 z"
         style="fill:#000000;stroke-width:0.26458332"
         inkscape:connector-curvature="0" />
      <path
         id="path1632"
         d="m 78.562511,242.40136 c -0.31086,-0.43656 -0.624731,-0.79375 -0.697492,-0.79375 -0.07276,0 0.122048,0.35719 0.432908,0.79375 0.31086,0.43656 0.624731,0.79375 0.697492,0.79375 0.07276,0 -0.122048,-0.35719 -0.432908,-0.79375 z"
         style="fill:#000000;stroke-width:0.26458332"
         inkscape:connector-curvature="0" />
      <path
         id="path1630"
         d="m 137.3,242.13678 c 0.31086,-0.43657 0.50567,-0.79375 0.43291,-0.79375 -0.0728,0 -0.38663,0.35718 -0.69749,0.79375 -0.31086,0.43656 -0.50567,0.79375 -0.43291,0.79375 0.0728,0 0.38663,-0.35719 0.69749,-0.79375 z"
         style="fill:#000000;stroke-width:0.26458332"
         inkscape:connector-curvature="0" />
      <path
         id="path1628"
         d="m 145.2375,237.97602 c 0,-1.68915 -0.0442,-3.02158 -0.0983,-2.96094 -0.054,0.0606 -0.1825,1.52205 -0.28545,3.24761 -0.13248,2.22041 -0.10376,3.0858 0.0983,2.96094 0.17769,-0.10981 0.28545,-1.33586 0.28545,-3.24761 z"
         style="fill:#000000;stroke-width:0.26458332"
         inkscape:connector-curvature="0" />
      <path
         id="path1626"
         d="m 143.90082,224.01282 c -0.55492,-11.63503 -0.72574,-11.16913 -0.58207,1.5875 0.077,6.83948 0.2426,12.4751 0.36794,12.52361 0.12534,0.0485 0.255,0.76288 0.28812,1.5875 0.0331,0.82462 0.10101,-0.88194 0.15085,-3.79236 0.0498,-2.91042 -0.0513,-8.26823 -0.22484,-11.90625 z"
         style="fill:#000000;stroke-width:0.26458332"
         inkscape:connector-curvature="0" />
      <path
         id="path1624"
         d="m 139.82688,237.87714 c 0.37603,-0.74208 0.63934,-1.3936 0.58511,-1.44782 -0.0542,-0.0542 -0.41812,0.55293 -0.80866,1.34923 -0.39054,0.7963 -0.65385,1.44781 -0.58512,1.44781 0.0687,0 0.43263,-0.60715 0.80867,-1.34922 z"
         style="fill:#000000;stroke-width:0.26458332"
         inkscape:connector-curvature="0" />
      <path
         id="path1622"
         d="m 70.451729,226.98942 c 0.09061,-5.49341 0.06932,-9.98802 -0.04729,-9.98802 -0.116618,0 -0.243259,4.55372 -0.281424,10.11938 -0.03817,5.56565 -0.01688,10.06026 0.04729,9.98802 0.06418,-0.0723 0.190818,-4.62597 0.281424,-10.11938 z"
         style="fill:#000000;stroke-width:0.26458332"
         inkscape:connector-curvature="0" />
      <path
         id="path1620"
         d="m 68.298058,226.98942 c 0.06159,-2.21919 0.06809,-4.09098 0.01445,-4.15952 -0.196414,-0.25101 -0.589927,0.67469 -0.593865,1.39701 -0.0023,0.4273 -0.116517,0.67371 -0.268635,0.5797 -0.459162,-0.28378 -0.2876,-1.69678 0.274234,-2.25861 0.296349,-0.29635 0.45969,-0.66685 0.362978,-0.82333 -0.09671,-0.15648 -0.0313,-0.37384 0.145359,-0.48303 0.23613,-0.14593 0.272289,-0.82371 0.136528,-2.55915 l -0.18467,-2.36065 -1.157273,-0.47865 c -0.636501,-0.26326 -1.626134,-0.54154 -2.199185,-0.6184 -0.867551,-0.11637 -1.153401,-0.0283 -1.708133,0.52647 -1.833978,1.83398 -1.840406,6.20829 -0.01455,9.90292 0.708526,1.43371 4.256174,5.37014 4.839757,5.37014 0.132568,0 0.29142,-1.81571 0.353005,-4.0349 z"
         style="fill:#ffffff;stroke-width:0.26458332"
         inkscape:connector-curvature="0" />
      <path
         id="path1618"
         d="m 64.701643,223.98007 c -0.487408,-1.43046 -0.564281,-4.11043 -0.140613,-4.90206 0.357562,-0.66811 0.125007,-0.94002 -0.418311,-0.48911 -0.64089,0.53189 -0.769797,0.10834 -0.154341,-0.50712 0.790201,-0.7902 1.892049,-0.70534 2.772368,0.21352 0.45996,0.48009 0.626537,0.83031 0.447545,0.94093 -0.156811,0.0969 -0.56718,-0.12815 -0.911931,-0.50014 -0.344752,-0.372 -0.690818,-0.67636 -0.769036,-0.67636 -0.624661,0 -0.910585,3.54109 -0.470001,5.82084 0.307366,1.59042 0.165821,1.63002 -0.35568,0.0995 z"
         style="fill:#000000;stroke-width:0.26458332"
         inkscape:connector-curvature="0" />
      <path
         id="path1616"
         d="m 150.11432,226.52195 c 2.58999,-3.29665 3.54437,-6.37344 3.23229,-10.42047 -0.2109,-2.73489 -0.69889,-3.33341 -2.7178,-3.33341 -1.28203,0 -1.45268,0.0748 -2.09656,0.91897 -0.61986,0.81268 -0.68275,1.08047 -0.54372,2.31511 0.0865,0.76787 0.23094,3.80714 0.32103,6.75394 0.0901,2.9468 0.25162,5.35781 0.35893,5.35781 0.10732,0 0.75794,-0.71638 1.44583,-1.59195 z"
         style="fill:#ffffff;stroke-width:0.26458332"
         inkscape:connector-curvature="0" />
      <path
         id="path1614"
         d="m 149.12138,222.14848 c -0.63245,-1.32627 -0.55948,-3.55958 0.11631,-3.55958 0.13176,0 0.16206,0.48367 0.0674,1.07575 -0.10287,0.64331 -0.0337,1.49472 0.17195,2.11798 0.44293,1.34211 0.21951,1.57195 -0.35564,0.36585 z"
         style="fill:#000000;stroke-width:0.26458332"
         inkscape:connector-curvature="0" />
      <path
         id="path1612"
         d="m 151.52535,217.99852 c 0.11343,-1.76971 0.0693,-2.06931 -0.32694,-2.22137 -0.42362,-0.16256 -0.74992,0.10069 -1.02559,0.82738 -0.0552,0.14552 -0.19223,0.1791 -0.3045,0.0746 -0.30078,-0.27989 0.3832,-1.75526 1.02077,-2.20183 0.61156,-0.42836 1.49216,-0.51713 1.49216,-0.15044 0,0.12975 -0.29584,0.31016 -0.65742,0.40091 l -0.65743,0.165 0.55773,0.55774 c 0.47842,0.47841 0.53437,0.75654 0.39343,1.95572 -0.2832,2.40959 -0.6359,2.83398 -0.49221,0.59227 z"
         style="fill:#000000;stroke-width:0.26458332"
         inkscape:connector-curvature="0" />
      <path
         id="path1610"
         d="m 70.81835,212.16477 c -0.05549,-0.61407 -0.10023,-0.0449 -0.09942,1.26476 7.93e-4,1.30968 0.04621,1.81211 0.10089,1.11649 0.05468,-0.69561 0.05402,-1.76718 -0.0015,-2.38125 z"
         style="fill:#000000;stroke-width:0.26458332"
         inkscape:connector-curvature="0" />
      <path
         id="path1608"
         d="m 70.29201,210.33104 c -0.05181,-0.91521 -0.09463,-0.23526 -0.09516,1.51099 -5.29e-4,1.74625 0.04187,2.49505 0.09421,1.66401 0.05234,-0.83104 0.05277,-2.25979 9.53e-4,-3.175 z"
         style="fill:#000000;stroke-width:0.26458332"
         inkscape:connector-curvature="0" />
      <path
         id="path1606"
         d="m 143.04576,210.71755 c -0.0606,-0.40018 -0.11022,-0.0728 -0.11022,0.7276 0,0.80037 0.0496,1.12779 0.11022,0.72761 0.0606,-0.40019 0.0606,-1.05503 0,-1.45521 z"
         style="fill:#000000;stroke-width:0.26458332"
         inkscape:connector-curvature="0" />
      <path
         id="path1604"
         d="m 58.902114,209.66425 c -0.06708,-0.25743 -0.126382,-0.11087 -0.131774,0.32569 -0.0054,0.43657 0.0495,0.64719 0.12197,0.46806 0.07248,-0.17913 0.07689,-0.53632 0.0098,-0.79375 z"
         style="fill:#000000;stroke-width:0.26458332"
         inkscape:connector-curvature="0" />
      <path
         id="path1602"
         d="m 147.49976,203.48622 c -0.22115,-1.06062 -0.53635,-2.05523 -0.70045,-2.21025 -0.21773,-0.20569 -0.25718,-0.13885 -0.14596,0.24731 0.26814,0.93102 0.67447,3.89307 0.88922,6.48229 l 0.20848,2.51354 0.0754,-2.55225 c 0.046,-1.55579 -0.0816,-3.30515 -0.32668,-4.48064 z"
         style="fill:#000000;stroke-width:0.26458332"
         inkscape:connector-curvature="0" />
      <path
         id="path1600"
         d="m 142.7788,208.20709 c -0.0633,-0.32912 -0.11747,-0.12215 -0.12041,0.45994 -0.003,0.58208 0.0489,0.85136 0.11507,0.59839 0.0662,-0.25296 0.0686,-0.72921 0.005,-1.05833 z"
         style="fill:#000000;stroke-width:0.26458332"
         inkscape:connector-curvature="0" />
      <path
         id="path1598"
         d="m 58.643686,206.7488 c -0.06062,-0.40018 -0.110223,-0.0728 -0.110223,0.7276 0,0.80037 0.0496,1.12779 0.110223,0.72761 0.06062,-0.40019 0.06062,-1.05503 0,-1.45521 z"
         style="fill:#000000;stroke-width:0.26458332"
         inkscape:connector-curvature="0" />
      <path
         id="path1596"
         d="m 142.24489,203.30921 c -0.0666,-0.25466 -0.121,-0.0463 -0.121,0.46303 0,0.50932 0.0544,0.71768 0.121,0.46302 0.0666,-0.25467 0.0666,-0.67138 0,-0.92605 z"
         style="fill:#000000;stroke-width:0.26458332"
         inkscape:connector-curvature="0" />
      <path
         id="path1594"
         d="m 141.94227,201.26358 c -0.13255,-1.0609 -0.0811,-1.59326 0.19168,-1.98269 0.20509,-0.2928 0.45151,-0.45375 0.5476,-0.35767 0.55309,0.55309 -0.50694,-5.50088 -1.1417,-6.5204 -0.55242,-0.88728 -0.5049,0.0777 0.13447,2.73082 0.47777,1.98255 0.60286,2.95392 0.42203,3.27706 -0.29369,0.52478 -0.22904,0.75437 -0.94891,-3.36971 -0.67608,-3.87323 -1.40882,-6.59544 -1.90862,-7.09073 -0.42298,-0.41916 -0.44245,-0.41939 -0.28502,-0.003 0.39572,1.04556 0.71532,2.66456 1.13929,5.77124 0.24824,1.81901 0.54557,3.42745 0.66074,3.57432 0.11516,0.14686 0.41654,1.42678 0.66973,2.84427 0.49851,2.79089 0.8116,3.4711 0.51871,1.12693 z"
         style="fill:#000000;stroke-width:0.26458332"
         inkscape:connector-curvature="0" />
      <path
         id="path1592"
         d="m 144.06105,197.4571 c -0.28558,-2.07301 -0.7533,-4.02039 -1.00262,-4.17448 -0.47138,-0.29132 -0.50206,0.15264 -0.11537,1.66929 0.21655,0.84936 0.47754,2.10862 0.57998,2.79835 0.10639,0.71642 0.29783,1.1851 0.44654,1.0932 0.15104,-0.0934 0.18943,-0.67525 0.0915,-1.38636 z"
         style="fill:#000000;stroke-width:0.26458332"
         inkscape:connector-curvature="0" />
      <path
         id="path1590"
         d="m 76.100031,194.84758 c -0.06708,-0.25743 -0.126381,-0.11086 -0.131773,0.3257 -0.0054,0.43656 0.04949,0.64718 0.121969,0.46805 0.07248,-0.17913 0.07689,-0.53631 0.0098,-0.79375 z"
         style="fill:#000000;stroke-width:0.26458332"
         inkscape:connector-curvature="0" />
      <path
         id="path1588"
         d="m 76.628228,191.13838 c -0.06655,-0.25466 -0.121,-0.0463 -0.121,0.46302 0,0.50933 0.05445,0.71769 0.121,0.46302 0.06655,-0.25466 0.06655,-0.67138 0,-0.92604 z"
         style="fill:#000000;stroke-width:0.26458332"
         inkscape:connector-curvature="0" />
      <path
         id="path1586"
         d="m 118.77917,183.80157 c 0,-0.0698 -0.47625,-0.36988 -1.05833,-0.66683 -0.58209,-0.29696 -1.05834,-0.48082 -1.05834,-0.40858 0,0.0722 0.44649,0.36706 0.99219,0.65514 1.12262,0.59266 1.12448,0.59335 1.12448,0.42027 z"
         style="fill:#000000;stroke-width:0.26458332"
         inkscape:connector-curvature="0" />
      <path
         id="path1584"
         d="m 62.783675,179.29828 c 0.39037,-1.16417 0.948208,-2.41432 1.239639,-2.77813 l 0.529874,-0.66145 -0.167772,0.7276 c -0.09227,0.40018 -0.106819,0.7276 -0.03232,0.7276 0.271341,0 2.16579,-4.34446 2.089868,-4.79261 -0.08592,-0.50717 2.014432,-4.0286 4.317203,-7.23819 0.811326,-1.13082 1.432487,-2.18398 1.380359,-2.34037 -0.11531,-0.34593 -3.302582,4.08868 -5.290086,7.36036 -2.873596,4.73029 -5.514036,10.64445 -5.475487,12.26421 0.01333,0.56006 0.515524,-0.60531 1.408725,-3.26902 z"
         style="fill:#000000;stroke-width:0.26458332"
         inkscape:connector-curvature="0" />
      <path
         id="path1582"
         d="m 84.037531,177.91425 c -0.06708,-0.25743 -0.126381,-0.11087 -0.131773,0.3257 -0.0054,0.43656 0.04949,0.64718 0.12197,0.46805 0.07247,-0.17913 0.07689,-0.53632 0.0098,-0.79375 z"
         style="fill:#000000;stroke-width:0.26458332"
         inkscape:connector-curvature="0" />
      <path
         id="path1580"
         d="m 72.925031,177.38508 c -0.06708,-0.25743 -0.126382,-0.11086 -0.131773,0.3257 -0.0054,0.43656 0.04949,0.64719 0.121969,0.46805 0.07248,-0.17913 0.07689,-0.53631 0.0098,-0.79375 z"
         style="fill:#000000;stroke-width:0.26458332"
         inkscape:connector-curvature="0" />
      <path
         id="path1578"
         d="m 72.473042,176.96756 c -0.0033,-0.47129 -0.05202,-0.50548 -0.260531,-0.18282 -0.336864,0.52126 -0.336864,1.13423 0,0.92604 0.14552,-0.0899 0.26276,-0.42439 0.260531,-0.74322 z"
         style="fill:#000000;stroke-width:0.26458332"
         inkscape:connector-curvature="0" />
      <path
         id="path1576"
         d="m 84.405799,176.757 c -0.139422,-0.34855 -0.261043,-0.49463 -0.270266,-0.32463 -0.02241,0.41291 0.285811,1.19631 0.418473,1.06365 0.05791,-0.0579 -0.0088,-0.39047 -0.148207,-0.73902 z"
         style="fill:#000000;stroke-width:0.26458332"
         inkscape:connector-curvature="0" />
      <path
         id="path1574"
         d="m 70.36404,176.7186 c 0.002,-0.1819 0.07035,-0.62838 0.151929,-0.99219 0.143149,-0.63841 0.133804,-0.64356 -0.268196,-0.14786 -0.465849,0.57442 -0.558441,1.47078 -0.151929,1.47078 0.145521,0 0.266209,-0.14883 0.268196,-0.33073 z"
         style="fill:#000000;stroke-width:0.26458332"
         inkscape:connector-curvature="0" />
      <path
         id="path1572"
         d="m 136.50625,175.5124 c 0,-0.11771 -0.18052,-0.44513 -0.40117,-0.7276 -0.37201,-0.47625 -0.37854,-0.46069 -0.0898,0.21401 0.31152,0.728 0.49099,0.91573 0.49099,0.51359 z"
         style="fill:#000000;stroke-width:0.26458332"
         inkscape:connector-curvature="0" />
      <path
         id="path1570"
         d="m 75.464705,165.27536 c 0.149411,-0.96878 0.130662,-1.01487 -0.221569,-0.54474 -0.216091,0.28842 -0.374821,1.04242 -0.36205,1.71979 0.01826,0.96856 0.06191,1.07589 0.221569,0.54474 0.109355,-0.3638 0.272278,-1.1377 0.36205,-1.71979 z"
         style="fill:#000000;stroke-width:0.26458332"
         inkscape:connector-curvature="0" />
      <path
         id="path1568"
         d="m 74.276165,164.28317 c 0.499481,-0.53352 0.573052,-0.7276 0.275812,-0.7276 -0.538509,0 -1.169179,0.72577 -1.667917,1.91942 -0.591522,1.41571 -0.476694,1.83253 0.163672,0.59412 0.300989,-0.58208 0.853783,-1.38575 1.228433,-1.78594 z"
         style="fill:#000000;stroke-width:0.26458332"
         inkscape:connector-curvature="0" />
      <path
         id="path1566"
         d="m 117.19167,160.39619 c 0,-0.31218 -0.51603,-0.64612 -0.70556,-0.45659 -0.18952,0.18952 0.14442,0.70555 0.45659,0.70555 0.13693,0 0.24897,-0.11203 0.24897,-0.24896 z"
         style="fill:#000000;stroke-width:0.26458332"
         inkscape:connector-curvature="0" />
      <path
         id="path1564"
         d="m 117.75655,157.99166 c -0.6352,-0.57436 -1.27065,-0.97275 -1.41212,-0.88533 -0.32922,0.20348 5.3e-4,0.53511 1.29719,1.30477 1.41327,0.83885 1.43179,0.77129 0.11493,-0.41944 z"
         style="fill:#000000;stroke-width:0.26458332"
         inkscape:connector-curvature="0" />
      <path
         id="path1562"
         d="m 91.194717,158.22042 c -0.40109,-0.14646 -0.654878,-0.38663 -0.563978,-0.53372 0.09473,-0.15327 -0.04444,-0.22703 -0.326043,-0.1728 -0.270225,0.052 -0.53118,0.30161 -0.579901,0.55461 -0.07358,0.38205 0.105196,0.45644 1.055296,0.43909 1.082445,-0.0198 1.104712,-0.0352 0.414626,-0.28718 z"
         style="fill:#000000;stroke-width:0.26458332"
         inkscape:connector-curvature="0" />
      <path
         id="path1560"
         d="m 95.495845,158.00542 c 0,-0.47386 -1.27888,-1.10421 -2.033419,-1.00226 -0.724013,0.0978 -0.711626,0.11659 0.445919,0.67488 1.34059,0.64657 1.5875,0.69749 1.5875,0.32738 z"
         style="fill:#000000;stroke-width:0.26458332"
         inkscape:connector-curvature="0" />
      <path
         id="path1556"
         d="m 96.678265,156.68968 c 0.227187,-0.36759 -0.748453,-0.80873 -1.760339,-0.79594 l -0.87729,0.0111 0.926042,0.50699 c 1.044721,0.57196 1.48559,0.64353 1.711587,0.27786 z"
         style="fill:#000000;stroke-width:0.26458332"
         inkscape:connector-curvature="0" />
      <path
         style="fill:none;stroke:#000000;stroke-width:0.66500002;stroke-linecap:round;stroke-linejoin:round;stroke-miterlimit:4;stroke-dasharray:none;stroke-opacity:1"
         d="m 102.49722,241.07847 c 0.41233,-0.39041 0.8267,-0.77897 1.25503,-1.15187 0.30395,-0.26462 0.61371,-0.52342 0.94108,-0.75876 0.23876,-0.17164 0.48652,-0.33262 0.75121,-0.46159 0.21923,-0.10682 0.45151,-0.19114 0.69334,-0.22822 0.19193,-0.0294 0.38893,-0.0255 0.57943,0.0126 0.21904,0.0439 0.42722,0.13214 0.61992,0.24388 0.23449,0.13597 0.44895,0.30385 0.65087,0.48397 0.26491,0.2363 0.51091,0.49292 0.74829,0.75656 0.3336,0.3705 0.65169,0.7546 0.96613,1.14139 0,0 0.0342,0.0422 0.0342,0.0422 0,0 0.0344,0.0425 0.0344,0.0425 -1.06028,-0.0277 -2.12051,-0.0572 -3.1809,-0.081 -0.70413,-0.0158 -1.4082,-0.0416 -2.11251,-0.0416 -0.66016,0 -1.32032,0 -1.98048,0 z"
         id="path2964"
         inkscape:connector-curvature="0"
         inkscape:path-effect="#path-effect2966"
         inkscape:original-d="m 102.49722,241.07847 c 3.7033,-3.51038 4.32926,-3.51692 7.27389,0.12262 -1.70146,-0.0444 -2.95161,-0.0822 -5.28952,-0.12262 h -1.98437"
         sodipodi:nodetypes="cccc"
         transform="matrix(1.1303733,0,0,1.2014691,-14.366232,-49.442775)" />
    </g>
  </g>
</svg>
